<svg width="26" height="26" viewBox="0 0 26 26" fill="none" xmlns="http://www.w3.org/2000/svg">
<path d="M2.16671 20.5835C1.85976 20.5835 1.60265 20.4795 1.39537 20.2715C1.1881 20.0635 1.0841 19.8064 1.08337 19.5002V5.41683C1.08337 5.10989 1.18737 4.85278 1.39537 4.6455C1.60337 4.43822 1.86049 4.33422 2.16671 4.3335C2.47293 4.33278 2.7304 4.43678 2.93912 4.6455C3.14785 4.85422 3.25149 5.11133 3.25004 5.41683V15.1668H11.9167V8.66683C11.9167 8.071 12.129 7.56111 12.5537 7.13717C12.9784 6.71322 13.4883 6.50089 14.0834 6.50017H20.5834C21.775 6.50017 22.7952 6.92447 23.6438 7.77308C24.4924 8.62169 24.9167 9.64183 24.9167 10.8335V19.5002C24.9167 19.8071 24.8127 20.0646 24.6047 20.2726C24.3967 20.4806 24.1396 20.5842 23.8334 20.5835C23.5272 20.5828 23.27 20.4788 23.062 20.2715C22.854 20.0642 22.75 19.8071 22.75 19.5002V17.3335H3.25004V19.5002C3.25004 19.8071 3.14604 20.0646 2.93804 20.2726C2.73004 20.4806 2.47293 20.5842 2.16671 20.5835ZM7.58337 14.0835C6.6806 14.0835 5.91324 13.7675 5.28129 13.1356C4.64935 12.5036 4.33337 11.7363 4.33337 10.8335C4.33337 9.93072 4.64935 9.16336 5.28129 8.53142C5.91324 7.89947 6.6806 7.5835 7.58337 7.5835C8.48615 7.5835 9.25351 7.89947 9.88546 8.53142C10.5174 9.16336 10.8334 9.93072 10.8334 10.8335C10.8334 11.7363 10.5174 12.5036 9.88546 13.1356C9.25351 13.7675 8.48615 14.0835 7.58337 14.0835Z" fill="#F8F6F0"/>
</svg>
