<svg width="26" height="26" viewBox="0 0 26 26" fill="none" xmlns="http://www.w3.org/2000/svg">
<path fill-rule="evenodd" clip-rule="evenodd" d="M21.6667 15.1665C21.8513 15.1664 22.0328 15.1191 22.194 15.0292C22.3552 14.9393 22.4907 14.8096 22.5878 14.6526C22.6848 14.4955 22.7401 14.3163 22.7484 14.1319C22.7567 13.9475 22.7177 13.764 22.6352 13.5989L20.7112 9.74984L22.6352 5.90075C22.7177 5.73563 22.7567 5.55216 22.7484 5.36776C22.7401 5.18336 22.6848 5.00413 22.5878 4.8471C22.4907 4.69006 22.3552 4.56042 22.194 4.47048C22.0328 4.38053 21.8513 4.33327 21.6667 4.33317H9.75004V3.24984C9.75004 2.96252 9.6359 2.68697 9.43274 2.4838C9.22958 2.28064 8.95403 2.1665 8.66671 2.1665C8.37939 2.1665 8.10384 2.28064 7.90068 2.4838C7.69751 2.68697 7.58337 2.96252 7.58337 3.24984V22.7498C7.58337 23.0372 7.69751 23.3127 7.90068 23.5159C8.10384 23.719 8.37939 23.8332 8.66671 23.8332C8.95403 23.8332 9.22958 23.719 9.43274 23.5159C9.6359 23.3127 9.75004 23.0372 9.75004 22.7498V15.1665H21.6667Z" fill="#F8F6F0"/>
</svg>
