<svg width="28" height="28" viewBox="0 0 28 28" fill="none" xmlns="http://www.w3.org/2000/svg">
<path d="M4.375 3.5C4.14294 3.5 3.92038 3.59219 3.75628 3.75628C3.59219 3.92038 3.5 4.14294 3.5 4.375C3.5 11.5202 5.30075 16.163 8.1305 18.9945C8.21191 19.0757 8.30852 19.1401 8.41482 19.1839C8.52112 19.2277 8.63502 19.2502 8.75 19.25H17.5C17.615 19.2502 17.7289 19.2277 17.8352 19.1839C17.9415 19.1401 18.0381 19.0757 18.1195 18.9945C19.0649 18.0375 19.8576 16.9409 20.4697 15.743C22.2092 15.6887 23.6285 15.2162 24.64 14.3325C25.7162 13.3875 26.25 12.0067 26.25 10.5C26.25 9.401 26.0278 8.28275 25.214 7.50225C24.7863 7.1044 24.2409 6.85628 23.66 6.79525C23.3327 6.75606 23.0018 6.75724 22.6748 6.79875C22.7249 6.02525 22.75 5.21733 22.75 4.375C22.75 4.14294 22.6578 3.92038 22.4937 3.75628C22.3296 3.59219 22.1071 3.5 21.875 3.5H4.375ZM23.303 8.4875C23.4324 8.48565 23.5609 8.50943 23.681 8.55749C23.8011 8.60555 23.9106 8.67693 24.003 8.7675C24.283 9.03525 24.5 9.66525 24.5 10.5C24.5 11.6182 24.1588 12.425 23.485 13.013C22.988 13.447 22.267 13.7777 21.2765 13.923C21.8505 12.3882 22.2722 10.6207 22.5138 8.596C22.7698 8.51989 23.0359 8.4833 23.303 8.4875Z" fill="#F8F6F0"/>
</svg>
