<svg width="17" height="22" viewBox="0 0 17 22" fill="none" xmlns="http://www.w3.org/2000/svg">
<path d="M4.29191 0.11279C4.87158 -0.061984 5.49363 -0.0329481 6.0545 0.195064C6.61537 0.423076 7.08123 0.836308 7.37452 1.36597L7.47255 1.56335L8.34952 3.51201C8.61515 4.10358 8.70126 4.76012 8.59717 5.40018C8.49308 6.04025 8.20338 6.63567 7.76399 7.11259L7.5878 7.28745L6.20612 8.5764C5.95708 8.8122 6.14386 9.72493 7.04467 11.2854C7.8554 12.6896 8.51511 13.3454 8.83966 13.3811H8.89662L8.96683 13.3679L11.6825 12.5373C12.0475 12.4254 12.437 12.4209 12.8044 12.5245C13.1718 12.6281 13.5016 12.8354 13.7544 13.1215L13.8749 13.2738L15.6725 15.7643C16.0249 16.2525 16.2004 16.846 16.1703 17.4473C16.1402 18.0485 15.9063 18.6216 15.507 19.0721L15.3453 19.239L14.6273 19.9199C13.9826 20.5305 13.1761 20.9431 12.3037 21.1087C11.4312 21.2743 10.5296 21.1858 9.70603 20.8539C7.1427 19.8206 4.81385 17.4599 2.69827 13.7958C0.578728 10.1223 -0.302208 6.92051 0.0912328 4.17834C0.21029 3.34943 0.551625 2.56823 1.07899 1.91771C1.60635 1.2672 2.30005 0.771653 3.08642 0.48371L3.34209 0.398929L4.29191 0.11279Z" fill="#414141"/>
</svg>
