<svg width="26" height="26" viewBox="0 0 26 26" fill="none" xmlns="http://www.w3.org/2000/svg">
<path d="M18.4167 3.61854C20.0636 4.56937 21.4312 5.93696 22.382 7.58385C23.3328 9.23074 23.8334 11.0989 23.8334 13.0006C23.8333 14.9022 23.3328 16.7704 22.3819 18.4172C21.4311 20.0641 20.0635 21.4317 18.4166 22.3825C16.7697 23.3333 14.9015 23.8338 12.9998 23.8338C11.0982 23.8338 9.23004 23.3332 7.58318 22.3823C5.93631 21.4315 4.56875 20.0638 3.61796 18.4169C2.66717 16.77 2.16664 14.9019 2.16669 13.0002L2.1721 12.6492C2.23277 10.7783 2.7772 8.955 3.7523 7.35712C4.7274 5.75924 6.0999 4.44128 7.73599 3.53175C9.37208 2.62221 11.2159 2.15214 13.0878 2.16735C14.9596 2.18256 16.7956 2.68254 18.4167 3.61854ZM13 6.50021C12.7127 6.50021 12.4372 6.61435 12.234 6.81751C12.0308 7.02068 11.9167 7.29623 11.9167 7.58354C11.0547 7.58354 10.2281 7.92595 9.61859 8.53545C9.0091 9.14494 8.66669 9.97159 8.66669 10.8335C8.66669 11.6955 9.0091 12.5221 9.61859 13.1316C10.2281 13.7411 11.0547 14.0835 11.9167 14.0835V16.2502C11.737 16.2602 11.5576 16.2261 11.3941 16.1509C11.2306 16.0758 11.088 15.9619 10.9785 15.819L10.9049 15.7096C10.7566 15.4706 10.5213 15.2986 10.2485 15.2299C9.97575 15.1613 9.68699 15.2014 9.44329 15.3419C9.19959 15.4823 9.02006 15.712 8.94265 15.9824C8.86525 16.2528 8.89604 16.5427 9.02852 16.7908C9.30503 17.2703 9.69944 17.6713 10.1744 17.9557C10.6493 18.2401 11.189 18.3985 11.7423 18.4158H11.9167C11.9165 18.6813 12.0138 18.9377 12.1901 19.1362C12.3665 19.3347 12.6096 19.4616 12.8733 19.4926L13 19.5002C13.2873 19.5002 13.5629 19.3861 13.7661 19.1829C13.9692 18.9797 14.0834 18.7042 14.0834 18.4169L14.274 18.4115C15.1186 18.3626 15.9108 17.9864 16.4824 17.3628C17.054 16.7391 17.3599 15.9171 17.3351 15.0715C17.3103 14.2259 16.9567 13.4233 16.3495 12.8342C15.7423 12.2451 14.9293 11.9161 14.0834 11.9169V9.75021C14.4712 9.73721 14.8103 9.90188 15.0215 10.1814L15.0952 10.2908C15.2434 10.5298 15.4788 10.7019 15.7515 10.7705C16.0243 10.8391 16.3131 10.799 16.5568 10.6586C16.8005 10.5181 16.98 10.2884 17.0574 10.018C17.1348 9.74764 17.104 9.45773 16.9715 9.20963C16.6951 8.72987 16.3008 8.32868 15.8259 8.0441C15.3509 7.75952 14.8112 7.60099 14.2578 7.58354H14.0834C14.0834 7.29623 13.9692 7.02068 13.7661 6.81751C13.5629 6.61435 13.2873 6.50021 13 6.50021ZM14.0834 14.0835C14.3707 14.0835 14.6462 14.1977 14.8494 14.4008C15.0526 14.604 15.1667 14.8796 15.1667 15.1669C15.1667 15.4542 15.0526 15.7297 14.8494 15.9329C14.6462 16.1361 14.3707 16.2502 14.0834 16.2502V14.0835ZM11.9167 9.75021V11.9169C11.6294 11.9169 11.3538 11.8027 11.1507 11.5996C10.9475 11.3964 10.8334 11.1209 10.8334 10.8335C10.8334 10.5462 10.9475 10.2707 11.1507 10.0675C11.3538 9.86435 11.6294 9.75021 11.9167 9.75021Z" fill="#8D8D8D"/>
</svg>
