<svg width="28" height="25" viewBox="0 0 28 25" fill="none" xmlns="http://www.w3.org/2000/svg">
<path d="M19.2269 6.90918C17.3214 5.29785 14.7498 3.90625 11.6679 3.90625C8.58596 3.90625 6.01443 5.29785 4.10887 6.90918C2.20818 8.52051 0.856791 10.4443 0.171373 11.7822C-0.0570984 12.2314 -0.0570984 12.7637 0.171373 13.2129C0.856791 14.5508 2.20818 16.4746 4.10887 18.0859C6.01443 19.7021 8.58109 21.0889 11.6679 21.0889C14.7547 21.0889 17.3214 19.6973 19.2269 18.0859C20.0144 17.417 20.7096 16.6943 21.3026 15.9814L25.663 18.5352C26.2707 18.8916 27.0436 18.7939 27.5443 18.2959C28.045 17.7979 28.1471 17.0264 27.8019 16.4111L25.5707 12.5L27.7971 8.58887C28.1471 7.97363 28.0401 7.20215 27.5394 6.7041C27.0387 6.20605 26.2707 6.1084 25.6582 6.46484L21.2978 9.01855C20.7047 8.30566 20.0096 7.58301 19.2221 6.91406L19.2269 6.90918ZM6.22346 12.5C6.22346 12.0856 6.38734 11.6882 6.67907 11.3951C6.97079 11.1021 7.36645 10.9375 7.77901 10.9375C8.19157 10.9375 8.58723 11.1021 8.87895 11.3951C9.17068 11.6882 9.33457 12.0856 9.33457 12.5C9.33457 12.9144 9.17068 13.3118 8.87895 13.6049C8.58723 13.8979 8.19157 14.0625 7.77901 14.0625C7.36645 14.0625 6.97079 13.8979 6.67907 13.6049C6.38734 13.3118 6.22346 12.9144 6.22346 12.5Z" fill="#8D8D8D"/>
</svg>
