<svg width="22" height="22" viewBox="0 0 22 22" fill="none" xmlns="http://www.w3.org/2000/svg">
<path d="M6.41667 20.1668C6.15694 20.1668 5.93939 20.0788 5.764 19.9028C5.58861 19.7268 5.50061 19.5093 5.5 19.2502V11.7793C4.675 11.5654 4.01042 11.13 3.50625 10.4731C3.00208 9.81614 2.75 9.07517 2.75 8.25017V2.75017C2.75 2.49044 2.838 2.27289 3.014 2.0975C3.19 1.92211 3.40756 1.83411 3.66667 1.8335C3.92578 1.83289 4.14364 1.92089 4.32025 2.0975C4.49686 2.27411 4.58456 2.49167 4.58333 2.75017V7.3335H5.5V2.75017C5.5 2.49044 5.588 2.27289 5.764 2.0975C5.94 1.92211 6.15756 1.83411 6.41667 1.8335C6.67578 1.83289 6.89364 1.92089 7.07025 2.0975C7.24686 2.27411 7.33456 2.49167 7.33333 2.75017V7.3335H8.25V2.75017C8.25 2.49044 8.338 2.27289 8.514 2.0975C8.69 1.92211 8.90756 1.83411 9.16667 1.8335C9.42578 1.83289 9.64364 1.92089 9.82025 2.0975C9.99686 2.27411 10.0846 2.49167 10.0833 2.75017V8.25017C10.0833 9.07517 9.83125 9.81614 9.32708 10.4731C8.82292 11.13 8.15833 11.5654 7.33333 11.7793V19.2502C7.33333 19.5099 7.24533 19.7277 7.06933 19.9037C6.89333 20.0797 6.67578 20.1674 6.41667 20.1668ZM15.5833 20.1668C15.3236 20.1668 15.1061 20.0788 14.9307 19.9028C14.7553 19.7268 14.6673 19.5093 14.6667 19.2502V11.4356C13.8417 11.1606 13.1771 10.584 12.6729 9.70583C12.1687 8.82767 11.9167 7.83064 11.9167 6.71475C11.9167 5.35503 12.2757 4.20155 12.9938 3.25433C13.7118 2.30711 14.575 1.8335 15.5833 1.8335C16.5917 1.8335 17.4549 2.31078 18.1729 3.26533C18.891 4.21989 19.25 5.37733 19.25 6.73767C19.25 7.85294 18.9979 8.846 18.4937 9.71683C17.9896 10.5877 17.325 11.1606 16.5 11.4356V19.2502C16.5 19.5099 16.412 19.7277 16.236 19.9037C16.06 20.0797 15.8424 20.1674 15.5833 20.1668Z" fill="black"/>
</svg>
